<svg width="31" height="30" viewBox="0 0 31 30" fill="none" xmlns="http://www.w3.org/2000/svg">
<path d="M27.1719 8.12501C27.1719 10.5375 25.2094 12.5 22.7969 12.5C20.3844 12.5 18.4219 10.5375 18.4219 8.12501C18.4219 5.71251 20.3844 3.75001 22.7969 3.75001C25.2094 3.75001 27.1719 5.71251 27.1719 8.12501ZM24.6719 14.7375C24.0469 14.9 23.4219 15 22.7969 15C20.9745 14.9967 19.2278 14.2713 17.9392 12.9827C16.6506 11.6941 15.9252 9.94735 15.9219 8.12501C15.9219 6.28751 16.6469 4.62501 17.7969 3.38751C17.57 3.10943 17.284 2.88547 16.9596 2.73194C16.6353 2.5784 16.2807 2.49917 15.9219 2.50001C14.5469 2.50001 13.4219 3.62501 13.4219 5.00001V5.36251C9.70937 6.46251 7.17188 9.87501 7.17188 13.75V21.25L4.67188 23.75V25H27.1719V23.75L24.6719 21.25V14.7375ZM15.9219 28.75C17.3094 28.75 18.4219 27.6375 18.4219 26.25H13.4219C13.4219 26.913 13.6853 27.5489 14.1541 28.0178C14.6229 28.4866 15.2588 28.75 15.9219 28.75Z" fill="#5B5D6B"/>
</svg>
