<svg width="30" height="31" viewBox="0 0 30 31" fill="none" xmlns="http://www.w3.org/2000/svg">
<path d="M18.8375 14.8745L17.7125 16.0245C16.8125 16.9245 16.25 17.687 16.25 19.562H13.75V18.937C13.75 17.5495 14.3125 16.2995 15.2125 15.3995L16.7625 13.8245C17.225 13.3745 17.5 12.7495 17.5 12.062C17.5 11.399 17.2366 10.7631 16.7678 10.2942C16.2989 9.8254 15.663 9.56201 15 9.56201C14.337 9.56201 13.7011 9.8254 13.2322 10.2942C12.7634 10.7631 12.5 11.399 12.5 12.062H10C10 10.7359 10.5268 9.46416 11.4645 8.52648C12.4021 7.5888 13.6739 7.06201 15 7.06201C16.3261 7.06201 17.5979 7.5888 18.5355 8.52648C19.4732 9.46416 20 10.7359 20 12.062C19.9982 13.1161 19.5804 14.1268 18.8375 14.8745ZM16.25 24.562H13.75V22.062H16.25V24.562ZM15 3.31201C13.3585 3.31201 11.733 3.63533 10.2165 4.26352C8.69989 4.8917 7.3219 5.81244 6.16116 6.97318C3.81696 9.31738 2.5 12.4968 2.5 15.812C2.5 19.1272 3.81696 22.3066 6.16116 24.6508C7.3219 25.8116 8.69989 26.7323 10.2165 27.3605C11.733 27.9887 13.3585 28.312 15 28.312C18.3152 28.312 21.4946 26.995 23.8388 24.6508C26.183 22.3066 27.5 19.1272 27.5 15.812C27.5 8.89951 21.875 3.31201 15 3.31201Z" fill="#5B5D6B"/>
</svg>
